<?xml version="1.0" encoding="UTF-8"?>
<svg version="1.1" xmlns="http://www.w3.org/2000/svg" width="300" height="50">
<path d="M0 0 C99 0 198 0 300 0 C300 16.5 300 33 300 50 C201 50 102 50 0 50 C0 33.5 0 17 0 0 Z " fill="#0651B1" transform="translate(0,0)"/>
<path d="M0 0 C26.73 0 53.46 0 81 0 C77.81636537 2.38772597 75.0829394 4.08715612 71.5703125 5.84765625 C70.52746094 6.37037109 69.48460938 6.89308594 68.41015625 7.43164062 C67.32605469 7.96982422 66.24195312 8.50800781 65.125 9.0625 C64.04863281 9.60455078 62.97226562 10.14660156 61.86328125 10.70507812 C60.81785156 11.22650391 59.77242187 11.74792969 58.6953125 12.28515625 C57.74672363 12.75832275 56.79813477 13.23148926 55.82080078 13.71899414 C53 15 53 15 49.76123047 16.06811523 C47.00832998 16.99718872 45.81190506 17.78544937 44 20 C43.34 19.34 42.68 18.68 42 18 C39.63969304 17.54152311 37.2601826 17.17856869 34.875 16.875 C33.59367187 16.70742188 32.31234375 16.53984375 30.9921875 16.3671875 C30.00476563 16.24601562 29.01734375 16.12484375 28 16 C27.67 16.99 27.34 17.98 27 19 C26.67 18.34 26.34 17.68 26 17 C24.68 17.33 23.36 17.66 22 18 C22 18.66 22 19.32 22 20 C23.32 20.66 24.64 21.32 26 22 C25.67 22.66 25.34 23.32 25 24 C24.34 24 23.68 24 23 24 C23 23.34 23 22.68 23 22 C22.34 22 21.68 22 21 22 C21.95865509 24.33075929 21.95865509 24.33075929 25 26 C23.68 26.33 22.36 26.66 21 27 C21 29.97 21 32.94 21 36 C22.299375 35.649375 23.59875 35.29875 24.9375 34.9375 C27.15234375 34.33984375 27.15234375 34.33984375 29 34 C29.495 34.495 29.495 34.495 30 35 C32.45809998 35.2500773 32.45809998 35.2500773 35 35 C35.66 34.34 36.32 33.68 37 33 C37.33 33.66 37.66 34.32 38 35 C39.65 35 41.3 35 43 35 C43 34.01 43 33.02 43 32 C42.01 31.67 41.02 31.34 40 31 C40 30.34 40 29.68 40 29 C41.65 29 43.3 29 45 29 C45 31.31 45 33.62 45 36 C45.66 36 46.32 36 47 36 C47 33.36 47 30.72 47 28 C47.33 28 47.66 28 48 28 C48 30.64 48 33.28 48 36 C48.66 36 49.32 36 50 36 C50 34.35 50 32.7 50 31 C51.5 32.375 51.5 32.375 53 34 C53 34.66 53 35.32 53 36 C56.3 36 59.6 36 63 36 C63.495 35.01 63.495 35.01 64 34 C64.33 34.33 64.66 34.66 65 35 C66.0725 35 67.145 35 68.25 35 C71.39141818 35 73.96983029 35.2654134 77 36 C77.2165625 36.928125 77.2165625 36.928125 77.4375 37.875 C77.93152225 40.03258322 77.93152225 40.03258322 79 42 C79.99 41.67 80.98 41.34 82 41 C82.66 41.33 83.32 41.66 84 42 C84 41.34 84 40.68 84 40 C84.66 40 85.32 40 86 40 C86 40.66 86 41.32 86 42 C89.63 41.67 93.26 41.34 97 41 C95.02 40.505 95.02 40.505 93 40 C90.6652039 39.33847444 88.33163378 38.67258667 86 38 C87.375 36 87.375 36 89 34 C89.66 34 90.32 34 91 34 C91 34.66 91 35.32 91 36 C91.66 36 92.32 36 93 36 C93.33 35.01 93.66 34.02 94 33 C94.33 33.99 94.66 34.98 95 36 C95.66 35.67 96.32 35.34 97 35 C97 33.68 97 32.36 97 31 C97.5878125 31.99 97.5878125 31.99 98.1875 33 C99.85416667 35.29166667 99.85416667 35.29166667 102.6875 35.25 C103.450625 35.1675 104.21375 35.085 105 35 C105.99 32.525 105.99 32.525 107 30 C107.66 30.33 108.32 30.66 109 31 C109.33333333 32.33333333 109.66666667 33.66666667 110 35 C110.66 35.33 111.32 35.66 112 36 C112.33 34.35 112.66 32.7 113 31 C113.33 31 113.66 31 114 31 C114 32.65 114 34.3 114 36 C114.99 36 115.98 36 117 36 C117.33 33.69 117.66 31.38 118 29 C119.32 29 120.64 29 122 29 C122 31.31 122 33.62 122 36 C122.66 36 123.32 36 124 36 C124 33.69 124 31.38 124 29 C124.99 29 125.98 29 127 29 C127 31.31 127 33.62 127 36 C127.99 36 128.98 36 130 36 C130 35.01 130 34.02 130 33 C130.99 33 131.98 33 133 33 C133 33.99 133 34.98 133 36 C135.97 34.35 138.94 32.7 142 31 C143.60355101 34.50776784 144.22036864 37.14354879 144 41 C144.66 41 145.32 41 146 41 C146 43.97 146 46.94 146 50 C97.82 50 49.64 50 0 50 C0 33.5 0 17 0 0 Z " fill="#034BAD" transform="translate(0,0)"/>
<path d="M0 0 C15.18 0 30.36 0 46 0 C46 16.5 46 33 46 50 C17.29 50 -11.42 50 -41 50 C-41 46.37 -41 42.74 -41 39 C-42.32 39 -43.64 39 -45 39 C-44.67 42.3 -44.34 45.6 -44 49 C-45.32 48.67 -46.64 48.34 -48 48 C-48.33 46.02 -48.66 44.04 -49 42 C-50.32 42 -51.64 42 -53 42 C-53.6708712 40.3767313 -54.33657029 38.75132422 -55 37.125 C-55.37125 36.22007813 -55.7425 35.31515625 -56.125 34.3828125 C-57 32 -57 32 -57 30 C-57.804375 29.690625 -58.60875 29.38125 -59.4375 29.0625 C-62 28 -62 28 -63 27 C-63.04063832 25.33382885 -63.042721 23.66611905 -63 22 C-60.96166576 23.2739589 -58.96147874 24.61061923 -57 26 C-57 26.66 -57 27.32 -57 28 C-56.34 28 -55.68 28 -55 28 C-54.34 26.35 -53.68 24.7 -53 23 C-50.33869601 24.01755741 -49.19483944 24.66684861 -47.734375 27.1640625 C-47.40953125 27.97617187 -47.0846875 28.78828125 -46.75 29.625 C-46.24726563 30.85089844 -46.24726563 30.85089844 -45.734375 32.1015625 C-45.49203125 32.72804687 -45.2496875 33.35453125 -45 34 C-44.67 33.34 -44.34 32.68 -44 32 C-43.34 32 -42.68 32 -42 32 C-42 32.66 -42 33.32 -42 34 C-40.68 33.34 -39.36 32.68 -38 32 C-38.66 30.68 -39.32 29.36 -40 28 C-37.87717331 26.99539469 -35.75166979 25.99644398 -33.625 25 C-32.44164062 24.443125 -31.25828125 23.88625 -30.0390625 23.3125 C-27 22 -27 22 -25 22 C-25 28.93 -25 35.86 -25 43 C-24.34 43 -23.68 43 -23 43 C-23 34.75 -23 26.5 -23 18 C-20.69 17.01 -18.38 16.02 -16 15 C-15.34 13.68 -14.68 12.36 -14 11 C-13.505 15.455 -13.505 15.455 -13 20 C-2.77 20 7.46 20 18 20 C18 17.03 18 14.06 18 11 C11.4 10.67 4.8 10.34 -2 10 C-1.34 9.67 -0.68 9.34 0 9 C0 6.03 0 3.06 0 0 Z " fill="#064CAF" transform="translate(254,0)"/>
<path d="M0 0 C0.495 0.99 0.495 0.99 1 2 C5.29 2 9.58 2 14 2 C14 2.66 14 3.32 14 4 C12.68 4 11.36 4 10 4 C10 4.66 10 5.32 10 6 C11.65 6 13.3 6 15 6 C15.66 4.68 16.32 3.36 17 2 C17.721875 2.185625 18.44375 2.37125 19.1875 2.5625 C22.18673388 3.02904749 24.06141683 2.64505484 27 2 C28.9996441 1.96227087 31.00054061 1.95350094 33 2 C33 2.66 33 3.32 33 4 C31.68 4 30.36 4 29 4 C29 4.66 29 5.32 29 6 C30.65 6 32.3 6 34 6 C34.66 4.68 35.32 3.36 36 2 C37.9375 2.375 37.9375 2.375 40 3 C40.495 3.99 40.495 3.99 41 5 C39.68 4.67 38.36 4.34 37 4 C37 4.66 37 5.32 37 6 C38.32 6.33 39.64 6.66 41 7 C40.125 10.875 40.125 10.875 39 12 C40.65 12.66 42.3 13.32 44 14 C43.979375 14.94875 43.95875 15.8975 43.9375 16.875 C43.77448174 19.90666283 43.77448174 19.90666283 45 22 C44.01 22 43.02 22 42 22 C41.505 21.01 41.505 21.01 41 20 C40.67 20.66 40.34 21.32 40 22 C39.34 22 38.68 22 38 22 C38 21.34 38 20.68 38 20 C36.68 20.99 35.36 21.98 34 23 C37.64793184 24.27253436 41.1936543 25.32829194 45 26 C44.67 26.66 44.34 27.32 44 28 C40.37 28 36.74 28 33 28 C33 27.34 33 26.68 33 26 C32.34 26 31.68 26 31 26 C31 26.66 31 27.32 31 28 C27.28400809 28.20086443 26.22791555 28.1519437 23 26 C23 25.01 23 24.02 23 23 C19.27255208 22.30652132 15.79062285 21.89470492 12 22 C11.34 22 10.68 22 10 22 C8.8553125 22.05220703 8.8553125 22.05220703 7.6875 22.10546875 C6.800625 22.13253906 5.91375 22.15960938 5 22.1875 C3.6696875 22.23970703 3.6696875 22.23970703 2.3125 22.29296875 C1.549375 22.19628906 0.78625 22.09960938 0 22 C-0.66 21.01 -1.32 20.02 -2 19 C-2.33 19.99 -2.66 20.98 -3 22 C-4.65 22 -6.3 22 -8 22 C-8.33 20.02 -8.66 18.04 -9 16 C-10.32 15.67 -11.64 15.34 -13 15 C-13 15.66 -13 16.32 -13 17 C-11.68 17.33 -10.36 17.66 -9 18 C-9.33 19.32 -9.66 20.64 -10 22 C-17.33333333 22 -24.66666667 22 -32 22 C-32 19.03 -32 16.06 -32 13 C-31.01 12.67 -30.02 12.34 -29 12 C-29.99 11.34 -30.98 10.68 -32 10 C-32 9.34 -32 8.68 -32 8 C-31.34 8 -30.68 8 -30 8 C-30 8.66 -30 9.32 -30 10 C-29.34 9.34 -28.68 8.68 -28 8 C-29.32 7.34 -30.64 6.68 -32 6 C-31.34 4.68 -30.68 3.36 -30 2 C-29.360625 2.185625 -28.72125 2.37125 -28.0625 2.5625 C-27.381875 2.706875 -26.70125 2.85125 -26 3 C-25.67 2.67 -25.34 2.34 -25 2 C-22.72710018 2.03822471 -20.4553289 2.15601747 -18.1875 2.3125 C-16.94355469 2.39113281 -15.69960938 2.46976563 -14.41796875 2.55078125 C-11.39456638 2.9481427 -9.55768592 3.42157922 -7 5 C-6.67 4.01 -6.34 3.02 -6 2 C-2.9375 0.8125 -2.9375 0.8125 0 0 Z " fill="#286EBF" transform="translate(53,14)"/>
<path d="M0 0 C2.475 0.99 2.475 0.99 5 2 C5 4.64 5 7.28 5 10 C5.66 10.33 6.32 10.66 7 11 C7.12375 10.21625 7.2475 9.4325 7.375 8.625 C8 6 8 6 10 4 C12.5625 3.8125 12.5625 3.8125 15 4 C16 5 16 5 16.09765625 6.84765625 C16.06510417 8.8984375 16.03255208 10.94921875 16 13 C16.99 13 17.98 13 19 13 C18.95875 12.05125 18.9175 11.1025 18.875 10.125 C19 7 19 7 21 5 C23.00349261 5.31165441 25.00326516 5.64763503 27 6 C28.2684375 5.62875 28.2684375 5.62875 29.5625 5.25 C30.366875 5.1675 31.17125 5.085 32 5 C33.71108689 6.62102968 35.37253306 8.29503463 37 10 C38.11375 10.433125 39.2275 10.86625 40.375 11.3125 C45.14657147 13.53374879 47.96637373 16.7494954 51 21 C51.495 22.485 51.495 22.485 52 24 C50.35 24.33 48.7 24.66 47 25 C47 24.34 47 23.68 47 23 C46.34 23 45.68 23 45 23 C44.505 24.485 44.505 24.485 44 26 C43.51080078 24.93458984 43.51080078 24.93458984 43.01171875 23.84765625 C42.57472656 22.92855469 42.13773438 22.00945313 41.6875 21.0625 C41.25824219 20.14597656 40.82898438 19.22945312 40.38671875 18.28515625 C39.14921339 15.69030588 39.14921339 15.69030588 36 15 C35.34 16.32 34.68 17.64 34 19 C33.34 19 32.68 19 32 19 C32 18.34 32 17.68 32 17 C31.360625 16.690625 30.72125 16.38125 30.0625 16.0625 C28 15 28 15 27 14 C27.18828772 16.44480079 27.18828772 16.44480079 28 19 C28.6290625 19.29261719 29.258125 19.58523437 29.90625 19.88671875 C32.61047018 21.32459702 33.09296594 22.64133435 34.25 25.4375 C34.58515625 26.21996094 34.9203125 27.00242187 35.265625 27.80859375 C36 30 36 30 36 33 C37.32 33 38.64 33 40 33 C40.268125 33.969375 40.53625 34.93875 40.8125 35.9375 C41.204375 36.948125 41.59625 37.95875 42 39 C42.99 39.33 43.98 39.66 45 40 C44.67 36.7 44.34 33.4 44 30 C45.32 30 46.64 30 48 30 C48 33.63 48 37.26 48 41 C42.06 41 36.12 41 30 41 C30.66 38.03 31.32 35.06 32 32 C24.08 32 16.16 32 8 32 C8 30.35 8 28.7 8 27 C9.98 26.67 11.96 26.34 14 26 C13.34 24.68 12.68 23.36 12 22 C11.67 22.99 11.34 23.98 11 25 C9.68 25 8.36 25 7 25 C6.67 25.99 6.34 26.98 6 28 C1.05 28.495 1.05 28.495 -4 29 C-3.855625 27.865625 -3.71125 26.73125 -3.5625 25.5625 C-2.99698633 21.04646944 -2.49225191 16.52452819 -2 12 C-0.68 12 0.64 12 2 12 C2 11.34 2 10.68 2 10 C0.68 9.67 -0.64 9.34 -2 9 C-1.125 2.25 -1.125 2.25 0 0 Z " fill="#5C3D30" transform="translate(165,9)"/>
<path d="M0 0 C8.58 0 17.16 0 26 0 C26 16.5 26 33 26 50 C13.79 50 1.58 50 -11 50 C-9.02 47.36 -7.04 44.72 -5 42 C-12.26 41.67 -19.52 41.34 -27 41 C-26.67 40.34 -26.34 39.68 -26 39 C-22.3958502 38.97099545 -18.79173038 38.95319982 -15.1875 38.9375 C-14.16333984 38.92912109 -13.13917969 38.92074219 -12.08398438 38.91210938 C-10.60961914 38.90727539 -10.60961914 38.90727539 -9.10546875 38.90234375 C-8.19949951 38.89710693 -7.29353027 38.89187012 -6.36010742 38.88647461 C-4 39 -4 39 -1 40 C-0.73791748 39.41283203 -0.47583496 38.82566406 -0.20581055 38.22070312 C1.06243144 35.885022 2.4178081 34.34261367 4.29296875 32.46875 C4.92267578 31.82292969 5.55238281 31.17710938 6.20117188 30.51171875 C7.53118848 29.16470094 8.86720308 27.82358051 10.20898438 26.48828125 C11.14774414 25.51955078 11.14774414 25.51955078 12.10546875 24.53125 C12.68449951 23.94923828 13.26353027 23.36722656 13.86010742 22.76757812 C15.20190973 21.06985764 15.20190973 21.06985764 14.87841797 19.00439453 C13.84764936 16.65236277 12.6341085 15.2342327 10.83984375 13.3984375 C10.21142578 12.74359375 9.58300781 12.08875 8.93554688 11.4140625 C7.94651367 10.40472656 7.94651367 10.40472656 6.9375 9.375 C5.62972451 8.0329097 4.32610347 6.68675439 3.02734375 5.3359375 C2.44718506 4.74345215 1.86702637 4.1509668 1.26928711 3.54052734 C0 2 0 2 0 0 Z " fill="#4275C0" transform="translate(274,0)"/>
<path d="M0 0 C1.02814316 0.00222061 2.05628632 0.00444122 3.11558533 0.00672913 C4.85727745 0.00684242 4.85727745 0.00684242 6.63415527 0.00695801 C8.52943214 0.01469994 8.52943214 0.01469994 10.46299744 0.02259827 C12.39193092 0.02472069 12.39193092 0.02472069 14.35983276 0.02688599 C17.78427561 0.03071034 21.20867628 0.0405399 24.63310242 0.05158997 C28.12522308 0.06180587 31.61735053 0.06638399 35.10948181 0.07142639 C41.96561897 0.08216225 48.82172806 0.09923767 55.67784119 0.12025452 C52.64793661 2.44528878 49.66755136 4.25413637 46.24815369 5.96791077 C45.20530212 6.49062561 44.16245056 7.01334045 43.08799744 7.55189514 C42.00389587 8.09007874 40.91979431 8.62826233 39.80284119 9.18275452 C38.726474 9.7248053 37.65010681 10.26685608 36.54112244 10.82533264 C35.49569275 11.34675842 34.45026306 11.8681842 33.37315369 12.40541077 C32.42456482 12.87857727 31.47597595 13.35174377 30.49864197 13.83924866 C27.67784119 15.12025452 27.67784119 15.12025452 24.43907166 16.18836975 C21.68617117 17.11744324 20.48974625 17.90570389 18.67784119 20.12025452 C18.01784119 19.46025452 17.35784119 18.80025452 16.67784119 18.12025452 C14.31753423 17.66177763 11.93802379 17.29882321 9.55284119 16.99525452 C8.27151306 16.82767639 6.99018494 16.66009827 5.67002869 16.48744202 C4.68260681 16.36627014 3.69518494 16.24509827 2.67784119 16.12025452 C2.34784119 17.11025452 2.01784119 18.10025452 1.67784119 19.12025452 C1.34784119 18.46025452 1.01784119 17.80025452 0.67784119 17.12025452 C-2.25849748 17.60978874 -2.25849748 17.60978874 -4.50965881 19.43275452 C-7.14826461 21.8893875 -10.29087973 23.26132003 -13.50965881 24.80775452 C-14.16385803 25.12808655 -14.81805725 25.44841858 -15.49208069 25.77845764 C-17.09943788 26.56453744 -18.71044739 27.34314135 -20.32215881 28.12025452 C-21.31215881 27.13025452 -22.30215881 26.14025452 -23.32215881 25.12025452 C-21.80006221 21.39111783 -19.58183684 19.31394273 -16.57215881 16.68275452 C-15.68270569 15.90158264 -14.79325256 15.12041077 -13.87684631 14.31556702 C-11.04908693 11.88559641 -8.21115245 9.47706511 -5.32215881 7.12025452 C-5.32215881 8.11025452 -5.32215881 9.10025452 -5.32215881 10.12025452 C-4.33215881 9.79025452 -3.34215881 9.46025452 -2.32215881 9.12025452 C-0.5942053 9.05222485 1.13619484 9.03529807 2.86534119 9.05775452 C3.76639587 9.06677795 4.66745056 9.07580139 5.59580994 9.08509827 C6.28288025 9.09669983 6.96995056 9.10830139 7.67784119 9.12025452 C4.26173893 8.17711324 1.22649254 8.03960335 -2.32215881 8.12025452 C-2.65215881 7.13025452 -2.98215881 6.14025452 -3.32215881 5.12025452 C-3.98215881 5.12025452 -4.64215881 5.12025452 -5.32215881 5.12025452 C-2.91772748 0.15109643 -2.91772748 0.15109643 0 0 Z " fill="#034BAF" transform="translate(25.322158813476563,-0.1202545166015625)"/>
<path d="M0 0 C7.59 0 15.18 0 23 0 C22.01 1.65 21.02 3.3 20 5 C20.99 4.67 21.98 4.34 23 4 C23.33 4.99 23.66 5.98 24 7 C26.97 7 29.94 7 33 7 C33 7.66 33 8.32 33 9 C26.565 9.495 26.565 9.495 20 10 C19.67 9.34 19.34 8.68 19 8 C17.78763672 9.21236328 17.78763672 9.21236328 16.55078125 10.44921875 C11.70052083 15.29947917 6.85026042 20.14973958 2 25 C2.99 25.33 3.98 25.66 5 26 C6.5078125 27.49609375 6.5078125 27.49609375 8.125 29.4375 C10.93611492 32.74996025 13.78231514 36.01935785 16.6875 39.25 C17.41324219 40.05953125 18.13898437 40.8690625 18.88671875 41.703125 C20.29940747 43.23854268 21.76212655 44.72933281 23.26953125 46.171875 C25 48 25 48 25 50 C16.75 50 8.5 50 0 50 C0 33.5 0 17 0 0 Z " fill="#3D74C0" transform="translate(0,0)"/>
<path d="M0 0 C2 2 2 2 2 6 C0.02 6.33 -1.96 6.66 -4 7 C-4 8.65 -4 10.3 -4 12 C3.92 12 11.84 12 20 12 C20 18 20 18 18 21 C15.44604513 21.26711404 13.13725626 21.34849029 10.5859375 21.29296875 C9.85629791 21.28872391 9.12665833 21.28447906 8.37490845 21.28010559 C6.04123241 21.26329353 3.7084156 21.22563868 1.375 21.1875 C-0.20571671 21.17245634 -1.78644693 21.15876738 -3.3671875 21.14648438 C-7.24512344 21.11338201 -11.12241598 21.06158404 -15 21 C-15.33 18.36 -15.66 15.72 -16 13 C-17.65 12.67 -19.3 12.34 -21 12 C-20.1875 10.0625 -20.1875 10.0625 -19 8 C-18.01 7.67 -17.02 7.34 -16 7 C-16 7.66 -16 8.32 -16 9 C-14.35232753 8.71890887 -12.70686855 8.42481474 -11.0625 8.125 C-10.14597656 7.96257813 -9.22945312 7.80015625 -8.28515625 7.6328125 C-7.53105469 7.42398438 -6.77695313 7.21515625 -6 7 C-5.67 6.34 -5.34 5.68 -5 5 C-3.68 5 -2.36 5 -1 5 C-0.67 3.35 -0.34 1.7 0 0 Z " fill="#271A11" transform="translate(177,29)"/>
<path d="M0 0 C1.98 0 3.96 0 6 0 C6 0.66 6 1.32 6 2 C4.68 2 3.36 2 2 2 C2 2.66 2 3.32 2 4 C3.65 4 5.3 4 7 4 C7.66 2.68 8.32 1.36 9 0 C10.9375 0.375 10.9375 0.375 13 1 C13.33 1.66 13.66 2.32 14 3 C12.68 2.67 11.36 2.34 10 2 C10 2.66 10 3.32 10 4 C11.32 4.33 12.64 4.66 14 5 C13.125 8.875 13.125 8.875 12 10 C13.65 10.66 15.3 11.32 17 12 C16.979375 12.94875 16.95875 13.8975 16.9375 14.875 C16.77448174 17.90666283 16.77448174 17.90666283 18 20 C17.01 20 16.02 20 15 20 C14.67 19.34 14.34 18.68 14 18 C13.67 18.66 13.34 19.32 13 20 C12.34 20 11.68 20 11 20 C11 19.34 11 18.68 11 18 C9.68 18.99 8.36 19.98 7 21 C10.64793184 22.27253436 14.1936543 23.32829194 18 24 C17.67 24.66 17.34 25.32 17 26 C13.37 26 9.74 26 6 26 C6 25.34 6 24.68 6 24 C5.34 24 4.68 24 4 24 C4 24.66 4 25.32 4 26 C0.28400809 26.20086443 -0.77208445 26.1519437 -4 24 C-3.67 21.36 -3.34 18.72 -3 16 C-3.99 15.67 -4.98 15.34 -6 15 C-6 14.34 -6 13.68 -6 13 C-4.68 13.33 -3.36 13.66 -2 14 C-2.33 13.34 -2.66 12.68 -3 12 C-4.98 12.33 -6.96 12.66 -9 13 C-8.1875 11.0625 -8.1875 11.0625 -7 9 C-4 8 -4 8 -1 9 C-0.67 6.03 -0.34 3.06 0 0 Z " fill="#054DAE" transform="translate(80,16)"/>
<path d="M0 0 C2.03833424 1.2739589 4.03852126 2.61061923 6 4 C6 4.66 6 5.32 6 6 C6.66 6 7.32 6 8 6 C8.66 4.35 9.32 2.7 10 1 C12.66130399 2.01755741 13.80516056 2.66684861 15.265625 5.1640625 C15.59046875 5.97617187 15.9153125 6.78828125 16.25 7.625 C16.58515625 8.44226562 16.9203125 9.25953125 17.265625 10.1015625 C17.62914062 11.04128906 17.62914062 11.04128906 18 12 C18.33 11.34 18.66 10.68 19 10 C19.66 10 20.32 10 21 10 C21 10.66 21 11.32 21 12 C21.61875 11.690625 22.2375 11.38125 22.875 11.0625 C24.25 10.375 25.625 9.6875 27 9 C30.8515107 14.86099454 30.70511266 21.14641138 31 28 C28.03 28 25.06 28 22 28 C22 24.37 22 20.74 22 17 C20.68 17 19.36 17 18 17 C18.33 20.3 18.66 23.6 19 27 C17.68 26.67 16.36 26.34 15 26 C14.67 24.02 14.34 22.04 14 20 C12.68 20 11.36 20 10 20 C9.3291288 18.3767313 8.66342971 16.75132422 8 15.125 C7.62875 14.22007813 7.2575 13.31515625 6.875 12.3828125 C6 10 6 10 6 8 C5.195625 7.690625 4.39125 7.38125 3.5625 7.0625 C1 6 1 6 0 5 C-0.04063832 3.33382885 -0.042721 1.66611905 0 0 Z " fill="#37313A" transform="translate(191,22)"/>
<path d="M0 0 C0.90492188 0.02320313 1.80984375 0.04640625 2.7421875 0.0703125 C4.10730469 0.09738281 4.10730469 0.09738281 5.5 0.125 C6.19867188 0.14820313 6.89734375 0.17140625 7.6171875 0.1953125 C7.04293811 4.67445774 5.8503988 8.6930102 4.3828125 12.9375 C3.34597433 15.99511461 2.47776762 19.08398438 1.6171875 22.1953125 C-0.6928125 21.8653125 -3.0028125 21.5353125 -5.3828125 21.1953125 C-5.3828125 21.8553125 -5.3828125 22.5153125 -5.3828125 23.1953125 C-4.17625 23.6284375 -4.17625 23.6284375 -2.9453125 24.0703125 C-0.3828125 25.1953125 -0.3828125 25.1953125 0.6171875 27.1953125 C0.1796875 29.3203125 0.1796875 29.3203125 -0.3828125 31.1953125 C0.6071875 31.1953125 1.5971875 31.1953125 2.6171875 31.1953125 C2.6171875 31.8553125 2.6171875 32.5153125 2.6171875 33.1953125 C-0.81213321 34.90997286 -4.59997315 34.24935306 -8.3828125 34.1953125 C-8.3828125 31.2253125 -8.3828125 28.2553125 -8.3828125 25.1953125 C-9.0428125 25.1953125 -9.7028125 25.1953125 -10.3828125 25.1953125 C-11.34570084 16.13702956 -9.151337 9.89166162 -4.3828125 2.1953125 C-2.3828125 0.1953125 -2.3828125 0.1953125 0 0 Z " fill="#A3B3D7" transform="translate(154.3828125,15.8046875)"/>
<path d="M0 0 C4.53897705 -0.02465392 9.07791543 -0.04283789 13.61694336 -0.05493164 C15.16219766 -0.0599714 16.70744716 -0.0668032 18.25268555 -0.07543945 C20.46925029 -0.08752076 22.68575218 -0.09323173 24.90234375 -0.09765625 C25.5971434 -0.10281754 26.29194305 -0.10797882 27.00779724 -0.11329651 C28.6722933 -0.11349277 30.33665499 -0.06189129 32 0 C33 1 33 1 33.1328125 3.03125 C33.13023437 3.8459375 33.12765625 4.660625 33.125 5.5 C33.12886719 6.72203125 33.12886719 6.72203125 33.1328125 7.96875 C33 10 33 10 32 11 C29.72052208 11.1002093 27.43792865 11.13081303 25.15625 11.1328125 C24.47195923 11.13376923 23.78766846 11.13472595 23.0826416 11.13571167 C21.63338123 11.1363933 20.18411782 11.13454023 18.73486328 11.13037109 C16.50937072 11.12502252 14.28407999 11.1303166 12.05859375 11.13671875 C10.65364539 11.13605797 9.24869715 11.1347768 7.84375 11.1328125 C6.55662109 11.13168457 5.26949219 11.13055664 3.94335938 11.12939453 C1 11 1 11 0 10 C-0.07205511 8.31391034 -0.08386068 6.62499341 -0.0625 4.9375 C-0.05347656 4.01839844 -0.04445312 3.09929688 -0.03515625 2.15234375 C-0.02355469 1.44207031 -0.01195312 0.73179688 0 0 Z " fill="#E2EAF5" transform="translate(240,10)"/>
<path d="M0 0 C2.25 0.4375 2.25 0.4375 5 2 C7.30267448 5.8255295 9 9.50810806 9 14 C10.32 14 11.64 14 13 14 C13.268125 14.969375 13.53625 15.93875 13.8125 16.9375 C14.4003125 18.4534375 14.4003125 18.4534375 15 20 C15.99 20.33 16.98 20.66 18 21 C17.67 17.7 17.34 14.4 17 11 C18.32 11 19.64 11 21 11 C21 14.63 21 18.26 21 22 C15.06 22 9.12 22 3 22 C3.66 19.03 4.32 16.06 5 13 C-2.92 13 -10.84 13 -19 13 C-19 11.35 -19 9.7 -19 8 C-17.02 7.67 -15.04 7.34 -13 7 C-13 6.01 -13 5.02 -13 4 C-11.68 4.33 -10.36 4.66 -9 5 C-9.99 5.495 -9.99 5.495 -11 6 C-10.01 6.33 -9.02 6.66 -8 7 C-7.67 5.68 -7.34 4.36 -7 3 C-5.02 3.66 -3.04 4.32 -1 5 C-0.67 3.35 -0.34 1.7 0 0 Z " fill="#646066" transform="translate(192,28)"/>
<path d="M0 0 C0.639375 0.185625 1.27875 0.37125 1.9375 0.5625 C2.9584375 0.7790625 2.9584375 0.7790625 4 1 C4.33 0.67 4.66 0.34 5 0 C11.52542373 -0.23728814 11.52542373 -0.23728814 14 1 C14.3188534 4.56204793 14.38019121 8.10482884 14.4609375 11.6796875 C14.66962899 15.07663129 14.66962899 15.07663129 17.0390625 16.9453125 C17.68617187 17.29335938 18.33328125 17.64140625 19 18 C17.02 17.67 15.04 17.34 13 17 C12.67 17.99 12.34 18.98 12 20 C7.33333333 20 2.66666667 20 -2 20 C-2 17.03 -2 14.06 -2 11 C-1.01 10.67 -0.02 10.34 1 10 C0.01 9.34 -0.98 8.68 -2 8 C-2 7.34 -2 6.68 -2 6 C-1.34 6 -0.68 6 0 6 C0 6.66 0 7.32 0 8 C0.66 7.34 1.32 6.68 2 6 C0.68 5.34 -0.64 4.68 -2 4 C-1.34 2.68 -0.68 1.36 0 0 Z " fill="#0F50B0" transform="translate(23,16)"/>
<path d="M0 0 C2.475 0.99 2.475 0.99 5 2 C5 4.64 5 7.28 5 10 C5.66 10.33 6.32 10.66 7 11 C7.12375 10.21625 7.2475 9.4325 7.375 8.625 C8 6 8 6 10 4 C12.125 4.375 12.125 4.375 14 5 C15 9.875 15 9.875 15 11 C13.02 11.33 11.04 11.66 9 12 C8.95101562 12.78246094 8.90203125 13.56492187 8.8515625 14.37109375 C8.77679688 15.38300781 8.70203125 16.39492188 8.625 17.4375 C8.55539063 18.44683594 8.48578125 19.45617187 8.4140625 20.49609375 C8.27742187 21.32238281 8.14078125 22.14867188 8 23 C7.34 23.33 6.68 23.66 6 24 C7.32 24.33 8.64 24.66 10 25 C9.01 25 8.02 25 7 25 C6.67 25.99 6.34 26.98 6 28 C1.05 28.495 1.05 28.495 -4 29 C-3.855625 27.865625 -3.71125 26.73125 -3.5625 25.5625 C-2.99698633 21.04646944 -2.49225191 16.52452819 -2 12 C-0.68 12 0.64 12 2 12 C2 11.34 2 10.68 2 10 C0.68 9.67 -0.64 9.34 -2 9 C-1.125 2.25 -1.125 2.25 0 0 Z " fill="#94A2C2" transform="translate(165,9)"/>
<path d="M0 0 C0.33 0 0.66 0 1 0 C1 2.64 1 5.28 1 8 C1.66 8 2.32 8 3 8 C3 6.35 3 4.7 3 3 C4.5 4.375 4.5 4.375 6 6 C6 6.66 6 7.32 6 8 C9.3 8 12.6 8 16 8 C16.33 7.34 16.66 6.68 17 6 C17.33 6.33 17.66 6.66 18 7 C19.0725 7 20.145 7 21.25 7 C24.39141818 7 26.96983029 7.2654134 30 8 C29.34 10.31 28.68 12.62 28 15 C27.09636719 14.9278125 26.19273438 14.855625 25.26171875 14.78125 C24.08222656 14.6884375 22.90273437 14.595625 21.6875 14.5 C20.51574219 14.4071875 19.34398437 14.314375 18.13671875 14.21875 C16.094806 14.07635011 14.0468721 14 12 14 C4 14 -4 14 -12 14 C-12 13.01 -12 12.02 -12 11 C-10.68 11 -9.36 11 -8 11 C-8 10.01 -8 9.02 -8 8 C-6.68 7.67 -5.36 7.34 -4 7 C-4 6.01 -4 5.02 -4 4 C-4.99 3.67 -5.98 3.34 -7 3 C-7 2.34 -7 1.68 -7 1 C-5.35 1 -3.7 1 -2 1 C-2 3.31 -2 5.62 -2 8 C-1.34 8 -0.68 8 0 8 C0 5.36 0 2.72 0 0 Z " fill="#0B52B0" transform="translate(47,28)"/>
<path d="M0 0 C1.3303125 0.2784375 1.3303125 0.2784375 2.6875 0.5625 C5.90671255 1.21469387 5.90671255 1.21469387 8.5625 0.25 C9.7690625 0.12625 9.7690625 0.12625 11 0 C12.71108689 1.62102968 14.37253306 3.29503463 16 5 C17.670625 5.6496875 17.670625 5.6496875 19.375 6.3125 C24.14657147 8.53374879 26.96637373 11.7494954 30 16 C30.495 17.485 30.495 17.485 31 19 C29.35 19.33 27.7 19.66 26 20 C26 19.34 26 18.68 26 18 C25.34 18 24.68 18 24 18 C23.67 18.99 23.34 19.98 23 21 C22.51080078 19.93458984 22.51080078 19.93458984 22.01171875 18.84765625 C21.57472656 17.92855469 21.13773438 17.00945313 20.6875 16.0625 C20.25824219 15.14597656 19.82898438 14.22945312 19.38671875 13.28515625 C18.14921339 10.69030588 18.14921339 10.69030588 15 10 C14.34 11.32 13.68 12.64 13 14 C12.34 14 11.68 14 11 14 C11 13.34 11 12.68 11 12 C10.360625 11.690625 9.72125 11.38125 9.0625 11.0625 C7 10 7 10 6 9 C5.01 10.485 5.01 10.485 4 12 C3.67 9.36 3.34 6.72 3 4 C1.35 4 -0.3 4 -2 4 C-1.34 2.68 -0.68 1.36 0 0 Z " fill="#483432" transform="translate(186,14)"/>
<path d="M0 0 C3.23191208 -0.18940508 6.45272555 -0.32780869 9.6875 -0.4375 C11.05551758 -0.52547852 11.05551758 -0.52547852 12.45117188 -0.61523438 C19.13031568 -0.78524894 19.13031568 -0.78524894 21.76025391 1.58935547 C23.14453125 3.52734375 23.14453125 3.52734375 25 7 C20.07930252 11.08450052 14.73004978 10.33827379 8.6875 10.1875 C7.66076172 10.17396484 6.63402344 10.16042969 5.57617188 10.14648438 C3.05024091 10.11123883 0.5253934 10.061967 -2 10 C-1.34 9.67 -0.68 9.34 0 9 C0 6.03 0 3.06 0 0 Z " fill="#0145AB" transform="translate(254,0)"/>
<path d="M0 0 C2.33944736 0.28730055 4.6739143 0.61936779 7 1 C7.33 2.98 7.66 4.96 8 7 C6.02 5.68 4.04 4.36 2 3 C1.34 5.97 0.68 8.94 0 12 C1.32 12.33 2.64 12.66 4 13 C4 13.66 4 14.32 4 15 C2.68 15 1.36 15 0 15 C0.02320313 15.58007812 0.04640625 16.16015625 0.0703125 16.7578125 C0.18121627 21.55836133 0.10772954 25.57376796 -2 30 C-4.125 31.75 -4.125 31.75 -6 33 C-6 33.66 -6 34.32 -6 35 C-4.68 35.33 -3.36 35.66 -2 36 C-1.67 38.64 -1.34 41.28 -1 44 C-3.31 44 -5.62 44 -8 44 C-7.01 43.505 -7.01 43.505 -6 43 C-6 42.34 -6 41.68 -6 41 C-6.99 41 -7.98 41 -9 41 C-8.896875 40.236875 -8.79375 39.47375 -8.6875 38.6875 C-8.790625 37.800625 -8.89375 36.91375 -9 36 C-11.41055254 34.33700035 -11.41055254 34.33700035 -14 33 C-14.33 32.01 -14.66 31.02 -15 30 C-12.23723823 30.52268466 -9.6739124 31.10869587 -7 32 C-6.896875 31.030625 -6.79375 30.06125 -6.6875 29.0625 C-6.04184321 24.50600776 -4.53450927 20.32167915 -3 16 C-2.4121875 14.2365625 -2.4121875 14.2365625 -1.8125 12.4375 C-1.544375 11.633125 -1.27625 10.82875 -1 10 C-3.97 10 -6.94 10 -10 10 C-10 9.67 -10 9.34 -10 9 C-7.03 9 -4.06 9 -1 9 C-1.020625 7.700625 -1.04125 6.40125 -1.0625 5.0625 C-1.08399454 3.70834367 -1.07148199 2.35243917 -1 1 C-0.67 0.67 -0.34 0.34 0 0 Z " fill="#305580" transform="translate(163,6)"/>
<path d="M0 0 C2 2 2 2 2 6 C0.02 6.33 -1.96 6.66 -4 7 C-4 8.65 -4 10.3 -4 12 C3.92 12 11.84 12 20 12 C20 13.98 20 15.96 20 18 C19.34 18.66 18.68 19.32 18 20 C18 17.69 18 15.38 18 13 C14.16504279 12.96437422 10.33463189 13.00676407 6.5 13.0625 C4.88351563 13.04606445 4.88351563 13.04606445 3.234375 13.02929688 C-3.90023816 13.18155996 -7.64479841 14.36475826 -12.68945312 19.50170898 C-13.12193359 19.99614502 -13.55441406 20.49058105 -14 21 C-15.76462683 17.91190305 -16 16.76687864 -16 13 C-17.65 12.67 -19.3 12.34 -21 12 C-20.1875 10.0625 -20.1875 10.0625 -19 8 C-18.01 7.67 -17.02 7.34 -16 7 C-16 7.66 -16 8.32 -16 9 C-14.35232753 8.71890887 -12.70686855 8.42481474 -11.0625 8.125 C-10.14597656 7.96257813 -9.22945312 7.80015625 -8.28515625 7.6328125 C-7.53105469 7.42398438 -6.77695313 7.21515625 -6 7 C-5.67 6.34 -5.34 5.68 -5 5 C-3.68 5 -2.36 5 -1 5 C-0.67 3.35 -0.34 1.7 0 0 Z " fill="#362D29" transform="translate(177,29)"/>
<path d="M0 0 C2.03833424 1.2739589 4.03852126 2.61061923 6 4 C6 4.66 6 5.32 6 6 C6.66 6 7.32 6 8 6 C8.33 4.68 8.66 3.36 9 2 C10.890625 2.6796875 10.890625 2.6796875 13 4 C14.046875 6.3828125 14.046875 6.3828125 14.75 9.125 C14.99234375 10.03507812 15.2346875 10.94515625 15.484375 11.8828125 C15.73960937 12.93082031 15.73960937 12.93082031 16 14 C15.67 14.33 15.34 14.66 15 15 C15.66 15.33 16.32 15.66 17 16 C18.54828113 19.78468721 19.24012841 22.91781703 19 27 C17.68 26.67 16.36 26.34 15 26 C14.67 24.02 14.34 22.04 14 20 C12.68 20 11.36 20 10 20 C9.3291288 18.3767313 8.66342971 16.75132422 8 15.125 C7.62875 14.22007813 7.2575 13.31515625 6.875 12.3828125 C6 10 6 10 6 8 C5.195625 7.690625 4.39125 7.38125 3.5625 7.0625 C1 6 1 6 0 5 C-0.04063832 3.33382885 -0.042721 1.66611905 0 0 Z " fill="#480E28" transform="translate(191,22)"/>
<path d="M0 0 C1.8125 0.0625 1.8125 0.0625 4 1 C5.81278756 4.4960903 7 7.03981755 7 11 C8.32 11 9.64 11 11 11 C11.268125 11.969375 11.53625 12.93875 11.8125 13.9375 C12.204375 14.948125 12.59625 15.95875 13 17 C13.99 17.33 14.98 17.66 16 18 C15.67 14.7 15.34 11.4 15 8 C16.32 8 17.64 8 19 8 C19 11.63 19 15.26 19 19 C13.06 19 7.12 19 1 19 C1.33 17.02 1.66 15.04 2 13 C2.30829875 8.88935005 1.37420971 5.86496482 0 2 C0 1.34 0 0.68 0 0 Z " fill="#CC9889" transform="translate(194,31)"/>
<path d="M0 0 C0.33 0 0.66 0 1 0 C0.51679152 6.2054142 -0.33318124 11.99945246 -2 18 C-0.7934375 18.433125 -0.7934375 18.433125 0.4375 18.875 C3 20 3 20 4 22 C3.5625 24.125 3.5625 24.125 3 26 C3.99 26 4.98 26 6 26 C6 26.66 6 27.32 6 28 C2.57067929 29.71466036 -1.21716065 29.05404056 -5 29 C-5 26.03 -5 23.06 -5 20 C-5.66 20 -6.32 20 -7 20 C-7 18.35 -7 16.7 -7 15 C-6.01 14.67 -5.02 14.34 -4 14 C-4 11.69 -4 9.38 -4 7 C-3.34 7 -2.68 7 -2 7 C-1.34 4.69 -0.68 2.38 0 0 Z " fill="#9D9CA5" transform="translate(151,21)"/>
<path d="M0 0 C0.33 0 0.66 0 1 0 C1 2.64 1 5.28 1 8 C1.66 8 2.32 8 3 8 C3 6.35 3 4.7 3 3 C4.5 4.375 4.5 4.375 6 6 C6 6.66 6 7.32 6 8 C5.01 8.66 4.02 9.32 3 10 C5.475 10.495 5.475 10.495 8 11 C8 11.99 8 12.98 8 14 C1.33333333 14 -5.33333333 14 -12 14 C-12 13.01 -12 12.02 -12 11 C-10.68 11 -9.36 11 -8 11 C-8 10.01 -8 9.02 -8 8 C-6.68 7.67 -5.36 7.34 -4 7 C-4 6.01 -4 5.02 -4 4 C-4.99 3.67 -5.98 3.34 -7 3 C-7 2.34 -7 1.68 -7 1 C-5.35 1 -3.7 1 -2 1 C-2 3.31 -2 5.62 -2 8 C-1.34 8 -0.68 8 0 8 C0 5.36 0 2.72 0 0 Z " fill="#095DB7" transform="translate(47,28)"/>
<path d="M0 0 C3.56247201 -0.0890618 5.51519503 0.55581621 8.14453125 2.96484375 C13.72167223 9.1650167 13.72167223 9.1650167 15 13 C13.35 13.33 11.7 13.66 10 14 C10 13.34 10 12.68 10 12 C9.34 12 8.68 12 8 12 C7.67 12.99 7.34 13.98 7 15 C6.67386719 14.30132812 6.34773437 13.60265625 6.01171875 12.8828125 C5.57472656 11.97273438 5.13773438 11.06265625 4.6875 10.125 C4.25824219 9.22007813 3.82898438 8.31515625 3.38671875 7.3828125 C2.0800612 4.73550524 2.0800612 4.73550524 -1 3 C-0.67 2.01 -0.34 1.02 0 0 Z " fill="#712053" transform="translate(202,20)"/>
<path d="M0 0 C0 6.27 0 12.54 0 19 C-6.75 13.375 -6.75 13.375 -9 10 C-7.85488963 7.02271304 -3.65933899 0 0 0 Z " fill="#5582C6" transform="translate(300,10)"/>
<path d="M0 0 C1.671549 0.30791692 3.33805547 0.64386903 5 1 C6.32 0.67 7.64 0.34 9 0 C9 2.97 9 5.94 9 9 C2.1640625 9.1953125 2.1640625 9.1953125 0 9 C-2 7 -2 7 -2.25 4.5 C-2 2 -2 2 0 0 Z " fill="#6696D0" transform="translate(70,16)"/>
<path d="M0 0 C0.33 0.99 0.66 1.98 1 3 C1.66 3.33 2.32 3.66 3 4 C3.33 3.01 3.66 2.02 4 1 C4.99 1.33 5.98 1.66 7 2 C6.67 3.98 6.34 5.96 6 8 C4 8 2 8 0 8 C-0.33 8.66 -0.66 9.32 -1 10 C-2.875 9.8125 -2.875 9.8125 -5 9 C-6.3125 6.625 -6.3125 6.625 -7 4 C-6.67 3.01 -6.34 2.02 -6 1 C-3.90006779 0.25486277 -2.22568901 0 0 0 Z " fill="#C19181" transform="translate(185,25)"/>
<path d="M0 0 C0 4.62 0 9.24 0 14 C-4.39718646 12.90070338 -4.79997334 12.44549271 -7.25 8.9375 C-7.77078125 8.20402344 -8.2915625 7.47054688 -8.828125 6.71484375 C-9.21484375 6.14894531 -9.6015625 5.58304687 -10 5 C-8.52227402 4.1641146 -7.04277811 3.33135744 -5.5625 2.5 C-4.32693359 1.80390625 -4.32693359 1.80390625 -3.06640625 1.09375 C-1 0 -1 0 0 0 Z " fill="#3F7EC7" transform="translate(290,2)"/>
<path d="M0 0 C2.475 0.99 2.475 0.99 5 2 C4.01 2.33 3.02 2.66 2 3 C2.99 6.3 3.98 9.6 5 13 C2.03 13 -0.94 13 -4 13 C-4 12.34 -4 11.68 -4 11 C-4.66 11 -5.32 11 -6 11 C-5.67 9.02 -5.34 7.04 -5 5 C-3.68 5 -2.36 5 -1 5 C-0.67 3.35 -0.34 1.7 0 0 Z " fill="#676465" transform="translate(192,28)"/>
<path d="M0 0 C7.8 2.6 7.8 2.6 9 5 C11.02463255 5.65213292 11.02463255 5.65213292 13 6 C13.33 8.64 13.66 11.28 14 14 C11.69 14 9.38 14 7 14 C7.66 13.67 8.32 13.34 9 13 C9 12.34 9 11.68 9 11 C8.01 11 7.02 11 6 11 C6.1546875 9.8553125 6.1546875 9.8553125 6.3125 8.6875 C6.209375 7.800625 6.10625 6.91375 6 6 C3.58944746 4.33700035 3.58944746 4.33700035 1 3 C0.67 2.01 0.34 1.02 0 0 Z " fill="#737581" transform="translate(148,36)"/>
<path d="M0 0 C4.62 0 9.24 0 14 0 C14 0.66 14 1.32 14 2 C12.68 2 11.36 2 10 2 C10 2.66 10 3.32 10 4 C10.99 4.33 11.98 4.66 13 5 C12.01 5 11.02 5 10 5 C10 5.99 10 6.98 10 8 C10.99 8.33 11.98 8.66 13 9 C11.02 9 9.04 9 7 9 C7 6.69 7 4.38 7 2 C6.01 2 5.02 2 4 2 C4 4.31 4 6.62 4 9 C3.34 9 2.68 9 2 9 C2 6.69 2 4.38 2 2 C1.34 2 0.68 2 0 2 C0 1.34 0 0.68 0 0 Z " fill="#9EBDE2" transform="translate(53,16)"/>
<path d="M0 0 C0.66 0 1.32 0 2 0 C2 1.32 2 2.64 2 4 C2.763125 3.79375 3.52625 3.5875 4.3125 3.375 C7 3 7 3 10 5 C8.125 8.875 8.125 8.875 7 10 C5.33382885 10.04063832 3.66611905 10.042721 2 10 C2 8.68 2 7.36 2 6 C0.35 5.67 -1.3 5.34 -3 5 C-1.125 1.125 -1.125 1.125 0 0 Z " fill="#393534" transform="translate(159,36)"/>
<path d="M0 0 C2.97 0 5.94 0 9 0 C8.5020163 3.73487777 8.12508244 5.81237635 6 9 C2.875 9.1875 2.875 9.1875 0 9 C0 7.35 0 5.7 0 4 C0.66 4 1.32 4 2 4 C2 3.34 2 2.68 2 2 C1.34 2 0.68 2 0 2 C0 1.34 0 0.68 0 0 Z " fill="#BBC7E2" transform="translate(153,16)"/>
<path d="M0 0 C1.65 0.99 3.3 1.98 5 3 C4.67 5.97 4.34 8.94 4 12 C-0.51569507 11.52466368 -0.51569507 11.52466368 -2.5 9.375 C-3.27539747 5.69186203 -1.63439545 3.2687909 0 0 Z " fill="#B0BBD9" transform="translate(152,26)"/>
<path d="M0 0 C1.8125 0.0625 1.8125 0.0625 4 1 C6.75067743 6.07817372 7.91264097 11.35852552 9 17 C7.68 17 6.36 17 5 17 C4.26614495 14.79843486 3.5325552 12.59678936 2.80078125 10.39453125 C2.14938077 8.44668493 1.4831338 6.50380837 0.8125 4.5625 C0 2 0 2 0 0 Z " fill="#AEA39B" transform="translate(194,31)"/>
<path d="M0 0 C2.33944736 0.28730055 4.6739143 0.61936779 7 1 C7.33 2.98 7.66 4.96 8 7 C6.02 5.68 4.04 4.36 2 3 C1.34 5.97 0.68 8.94 0 12 C1.32 12.33 2.64 12.66 4 13 C4 13.66 4 14.32 4 15 C2.68 14.67 1.36 14.34 0 14 C-0.33 12.68 -0.66 11.36 -1 10 C-3.97 10 -6.94 10 -10 10 C-10 9.67 -10 9.34 -10 9 C-7.03 9 -4.06 9 -1 9 C-1.020625 7.700625 -1.04125 6.40125 -1.0625 5.0625 C-1.08399454 3.70834367 -1.07148199 2.35243917 -1 1 C-0.67 0.67 -0.34 0.34 0 0 Z " fill="#6E6B7D" transform="translate(163,6)"/>
<path d="M0 0 C2.66130399 1.01755741 3.80516056 1.66684861 5.265625 4.1640625 C5.59046875 4.97617187 5.9153125 5.78828125 6.25 6.625 C6.75273437 7.85089844 6.75273437 7.85089844 7.265625 9.1015625 C7.62914062 10.04128906 7.62914062 10.04128906 8 11 C8.33 10.34 8.66 9.68 9 9 C9.66 9 10.32 9 11 9 C11 9.66 11 10.32 11 11 C11.99 11.33 12.98 11.66 14 12 C13.34 12 12.68 12 12 12 C12 13.32 12 14.64 12 16 C10.68 16 9.36 16 8 16 C7.67 16.99 7.34 17.98 7 19 C7 17.68 7 16.36 7 15 C6.01 14.67 5.02 14.34 4 14 C4.33 13.01 4.66 12.02 5 11 C4.28355306 8.74171435 4.28355306 8.74171435 3.125 6.4375 C2.75632813 5.65246094 2.38765625 4.86742187 2.0078125 4.05859375 C1.34414845 2.70296989 0.67500608 1.35001216 0 0 Z " fill="#561536" transform="translate(201,23)"/>
<path d="M0 0 C2.93453261 0.36681658 3.86437246 0.86437246 6 3 C5.44444444 7.55555556 5.44444444 7.55555556 4 9 C1.5 9.125 1.5 9.125 -1 9 C-2 8 -2 8 -2.1875 5.0625 C-2 2 -2 2 0 0 Z " fill="#CCDAEE" transform="translate(101,27)"/>
<path d="M0 0 C1.65 0 3.3 0 5 0 C6.61949011 2.57213134 7.04408751 3.67669159 6.625 6.75 C6.41875 7.4925 6.2125 8.235 6 9 C4.02 9 2.04 9 0 9 C0 6.03 0 3.06 0 0 Z " fill="#DDE6F3" transform="translate(21,27)"/>
<path d="M0 0 C3.53571429 0.53571429 3.53571429 0.53571429 5 2 C5.125 5 5.125 5 5 8 C4 9 4 9 1.5 9.125 C-1 9 -1 9 -2 8 C-2.1875 5.0625 -2.1875 5.0625 -2 2 C-1.34 1.34 -0.68 0.68 0 0 Z " fill="#D5E1F1" transform="translate(107,16)"/>
<path d="M0 0 C0.66 0 1.32 0 2 0 C1.67 1.65 1.34 3.3 1 5 C2.32 5.33 3.64 5.66 5 6 C5 6.66 5 7.32 5 8 C1.7 8.33 -1.6 8.66 -5 9 C-4.67 6.36 -4.34 3.72 -4 1 C-3.67 1.66 -3.34 2.32 -3 3 C-2.34 3 -1.68 3 -1 3 C-0.67 2.01 -0.34 1.02 0 0 Z " fill="#766E86" transform="translate(166,29)"/>
<path d="M0 0 C2.475 0.99 2.475 0.99 5 2 C4.67 4.31 4.34 6.62 4 9 C0.25 10.125 0.25 10.125 -2 9 C-1.125 2.25 -1.125 2.25 0 0 Z " fill="#BE8C83" transform="translate(165,9)"/>
<path d="M0 0 C0.66 0 1.32 0 2 0 C2.33 0.66 2.66 1.32 3 2 C3.33 1.34 3.66 0.68 4 0 C4.66 0 5.32 0 6 0 C6.33 0.66 6.66 1.32 7 2 C8.32 1.34 9.64 0.68 11 0 C10.34 2.64 9.68 5.28 9 8 C8.01 8 7.02 8 6 8 C5.67 6.68 5.34 5.36 5 4 C4.67 5.32 4.34 6.64 4 8 C3.01 7.67 2.02 7.34 1 7 C0.67 4.69 0.34 2.38 0 0 Z " fill="#DDE7F4" transform="translate(108,28)"/>
<path d="M0 0 C2 4 2 4 2 7 C3.32 7 4.64 7 6 7 C5.34 5.02 4.68 3.04 4 1 C5.32 1 6.64 1 8 1 C9.08174162 4.36541838 8.92538169 5.29847322 8 9 C4.7 9 1.4 9 -2 9 C-1.34 6.03 -0.68 3.06 0 0 Z " fill="#9A786F" transform="translate(197,41)"/>
<path d="M0 0 C1.65 0 3.3 0 5 0 C5.144375 0.7425 5.28875 1.485 5.4375 2.25 C5.90187492 4.52027739 6.41863569 6.75759479 7 9 C6.01 9 5.02 9 4 9 C3.67 8.34 3.34 7.68 3 7 C2.67 7.66 2.34 8.32 2 9 C1.34 9 0.68 9 0 9 C0 6.03 0 3.06 0 0 Z " fill="#C2D4EB" transform="translate(91,27)"/>
<path d="M0 0 C1.65 0.33 3.3 0.66 5 1 C4.25 7.625 4.25 7.625 2 11 C0.68 10.67 -0.64 10.34 -2 10 C-1.34 6.7 -0.68 3.4 0 0 Z " fill="#7A7A84" transform="translate(173,23)"/>
<path d="M0 0 C5.61 0 11.22 0 17 0 C17 0.99 17 1.98 17 3 C11.06 3 5.12 3 -1 3 C-0.67 2.01 -0.34 1.02 0 0 Z " fill="#3871C0" transform="translate(248,26)"/>
<path d="M0 0 C0.66 0 1.32 0 2 0 C2.33 0.66 2.66 1.32 3 2 C4.65 1.67 6.3 1.34 8 1 C9.60355101 4.50776784 10.22036864 7.14354879 10 11 C8.68 10.67 7.36 10.34 6 10 C5.67 8.02 5.34 6.04 5 4 C3.68 4 2.36 4 1 4 C0.67 2.68 0.34 1.36 0 0 Z " fill="#2F1F26" transform="translate(200,38)"/>
<path d="M0 0 C2.03833424 1.2739589 4.03852126 2.61061923 6 4 C6 4.66 6 5.32 6 6 C6.66 6 7.32 6 8 6 C8.66 4.68 9.32 3.36 10 2 C10 4.31 10 6.62 10 9 C5.88654141 8.53256152 2.88860945 8.11081018 0 5 C-0.25 2.3125 -0.25 2.3125 0 0 Z " fill="#1C110D" transform="translate(191,22)"/>
<path d="M0 0 C0.66 0 1.32 0 2 0 C2.66 1.98 3.32 3.96 4 6 C3.34 6 2.68 6 2 6 C2.33 7.65 2.66 9.3 3 11 C1.35 10.67 -0.3 10.34 -2 10 C-2.33 8.02 -2.66 6.04 -3 4 C-2.34 4 -1.68 4 -1 4 C-0.67 2.68 -0.34 1.36 0 0 Z " fill="#363548" transform="translate(216,31)"/>
<path d="M0 0 C2.625 0.375 2.625 0.375 5 1 C5 1.66 5 2.32 5 3 C3.68 3 2.36 3 1 3 C0.67 4.32 0.34 5.64 0 7 C0.66 6.67 1.32 6.34 2 6 C2 5.34 2 4.68 2 4 C3.32 4.33 4.64 4.66 6 5 C5.34 6.32 4.68 7.64 4 9 C-0.875 8.125 -0.875 8.125 -2 7 C-2.1875 4.5625 -2.1875 4.5625 -2 2 C-1.34 1.34 -0.68 0.68 0 0 Z " fill="#CDDBEE" transform="translate(84,27)"/>
<path d="M0 0 C0.33 0 0.66 0 1 0 C0.03644647 10.55808656 0.03644647 10.55808656 -1 15 C-2.65 15.33 -4.3 15.66 -6 16 C-6.33 17.32 -6.66 18.64 -7 20 C-7 18.35 -7 16.7 -7 15 C-6.01 14.67 -5.02 14.34 -4 14 C-4 11.69 -4 9.38 -4 7 C-3.34 7 -2.68 7 -2 7 C-1.34 4.69 -0.68 2.38 0 0 Z " fill="#788EBD" transform="translate(151,21)"/>
<path d="M0 0 C0.33 0.66 0.66 1.32 1 2 C1.66 2 2.32 2 3 2 C2.34 4.31 1.68 6.62 1 9 C2.98 9 4.96 9 7 9 C6.67 10.98 6.34 12.96 6 15 C1.77202073 11.91709845 1.77202073 11.91709845 0 10 C-0.375 7.1875 -0.375 7.1875 0 5 C-0.99 4.67 -1.98 4.34 -3 4 C-2.01 2.68 -1.02 1.36 0 0 Z " fill="#9DAED1" transform="translate(152,16)"/>
<path d="M0 0 C1.9375 0.375 1.9375 0.375 4 1 C4.33 1.66 4.66 2.32 5 3 C3.68 2.67 2.36 2.34 1 2 C1 2.66 1 3.32 1 4 C2.32 4.33 3.64 4.66 5 5 C4.67 6.32 4.34 7.64 4 9 C2.35 9 0.7 9 -1 9 C-1.33 8.01 -1.66 7.02 -2 6 C-1.01 6 -0.02 6 1 6 C0.01 5.34 -0.98 4.68 -2 4 C-1.34 2.68 -0.68 1.36 0 0 Z " fill="#C6D9EE" transform="translate(39,27)"/>
<path d="M0 0 C1.9375 0.375 1.9375 0.375 4 1 C4.33 1.66 4.66 2.32 5 3 C3.68 2.67 2.36 2.34 1 2 C1 2.66 1 3.32 1 4 C2.32 4.33 3.64 4.66 5 5 C4.67 6.32 4.34 7.64 4 9 C2.35 9 0.7 9 -1 9 C-1.33 8.01 -1.66 7.02 -2 6 C-1.01 6 -0.02 6 1 6 C0.01 5.34 -0.98 4.68 -2 4 C-1.34 2.68 -0.68 1.36 0 0 Z " fill="#C6D7EC" transform="translate(89,16)"/>
<path d="M0 0 C0.598125 0.185625 1.19625 0.37125 1.8125 0.5625 C4.16408762 1.22093687 4.16408762 1.22093687 7 0 C9.6875 0.4375 9.6875 0.4375 12 1 C12 2.32 12 3.64 12 5 C7.71 4.67 3.42 4.34 -1 4 C-0.67 2.68 -0.34 1.36 0 0 Z " fill="#467BC3" transform="translate(63,38)"/>
<path d="M0 0 C0.93423645 3.01031744 1.04449911 3.86650268 0 7 C-1.625 8.75 -1.625 8.75 -4 10 C-7.75 9.6875 -7.75 9.6875 -11 9 C-8 8 -8 8 -5 9 C-5 7.35 -5 5.7 -5 4 C-4.01 3.67 -3.02 3.34 -2 3 C-2 2.34 -2 1.68 -2 1 C-1.34 0.67 -0.68 0.34 0 0 Z " fill="#274B73" transform="translate(161,29)"/>
<path d="M0 0 C0.99 0.33 1.98 0.66 3 1 C2.67 2.98 2.34 4.96 2 7 C0.35 7 -1.3 7 -3 7 C-3.33 6.34 -3.66 5.68 -4 5 C-4.99 4.67 -5.98 4.34 -7 4 C-7 3.34 -7 2.68 -7 2 C-4.03 2.495 -4.03 2.495 -1 3 C-0.67 2.01 -0.34 1.02 0 0 Z " fill="#AB9285" transform="translate(189,26)"/>
<path d="M0 0 C0.66 0 1.32 0 2 0 C2 2.31 2 4.62 2 7 C2.99 7 3.98 7 5 7 C5 4.69 5 2.38 5 0 C5.66 0 6.32 0 7 0 C7.09765625 6.15234375 7.09765625 6.15234375 7 8 C6 9 6 9 3.5 9.125 C1 9 1 9 0 8 C-0.14115161 5.32941149 -0.04247107 2.67567762 0 0 Z " fill="#D1DDEF" transform="translate(29,27)"/>
<path d="M0 0 C2.125 0.375 2.125 0.375 4 1 C5 5.875 5 5.875 5 7 C2.69 7.33 0.38 7.66 -2 8 C-2.125 5.125 -2.125 5.125 -2 2 C-1.34 1.34 -0.68 0.68 0 0 Z " fill="#A0826E" transform="translate(175,13)"/>
<path d="M0 0 C1.485 0.99 1.485 0.99 3 2 C3.99 1.67 4.98 1.34 6 1 C7.72795352 0.93197033 9.45835365 0.91504355 11.1875 0.9375 C12.08855469 0.94652344 12.98960937 0.95554688 13.91796875 0.96484375 C14.60503906 0.97644531 15.29210937 0.98804688 16 1 C16 1.66 16 2.32 16 3 C13.11584117 4.44207941 10.58278472 4.09394887 7.375 4.0625 C6.18648438 4.05347656 4.99796875 4.04445313 3.7734375 4.03515625 C2.85820313 4.02355469 1.94296875 4.01195312 1 4 C0.67 2.68 0.34 1.36 0 0 Z " fill="#4A7EC4" transform="translate(119,38)"/>
<path d="M0 0 C1.65 0.33 3.3 0.66 5 1 C5 1.66 5 2.32 5 3 C3.68 2.67 2.36 2.34 1 2 C1 2.66 1 3.32 1 4 C2.32 4.33 3.64 4.66 5 5 C4.67 6.32 4.34 7.64 4 9 C2.35 9 0.7 9 -1 9 C-0.67 8.01 -0.34 7.02 0 6 C-0.33 5.67 -0.66 5.34 -1 5 C-0.71395102 3.32457024 -0.38218767 1.65614657 0 0 Z " fill="#D4E0F1" transform="translate(73,27)"/>
<path d="M0 0 C0.99 0.33 1.98 0.66 3 1 C3.6875 3.0625 3.6875 3.0625 4 5 C4.66 5 5.32 5 6 5 C6.33 3.68 6.66 2.36 7 1 C7 3.64 7 6.28 7 9 C6.34 9 5.68 9 5 9 C4.34 8.01 3.68 7.02 3 6 C2.67 6.99 2.34 7.98 2 9 C1.34 9 0.68 9 0 9 C0 6.03 0 3.06 0 0 Z " fill="#DFEAF5" transform="translate(48,27)"/>
<path d="M0 0 C1.65 0 3.3 0 5 0 C5.82638376 2.89234315 6 4.88742431 6 8 C5.01 7.67 4.02 7.34 3 7 C3 6.34 3 5.68 3 5 C2.34 5 1.68 5 1 5 C0.67 5.99 0.34 6.98 0 8 C0 5.36 0 2.72 0 0 Z " fill="#C9D8ED" transform="translate(37,17)"/>
<path d="M0 0 C4.875 0.875 4.875 0.875 6 2 C6.04063832 3.66617115 6.042721 5.33388095 6 7 C4.68 7 3.36 7 2 7 C0 5 0 5 -0.125 2.375 C-0.08375 1.59125 -0.0425 0.8075 0 0 Z " fill="#A2715E" transform="translate(192,18)"/>
<path d="M0 0 C1.98 0 3.96 0 6 0 C6 2.64 6 5.28 6 8 C4 8 4 8 2.375 6.5 C1.92125 6.005 1.4675 5.51 1 5 C0.67 5.99 0.34 6.98 0 8 C0 5.36 0 2.72 0 0 Z " fill="#CBDAEE" transform="translate(114,17)"/>
<path d="M0 0 C2.475 0.99 2.475 0.99 5 2 C4.01 2.33 3.02 2.66 2 3 C2.99 6.3 3.98 9.6 5 13 C2.69 13 0.38 13 -2 13 C-1.01 12.67 -0.02 12.34 1 12 C0.835 11.319375 0.67 10.63875 0.5 9.9375 C-0.07089059 6.5835178 -0.06659023 3.39610195 0 0 Z " fill="#595554" transform="translate(192,28)"/>
<path d="M0 0 C0.66 0 1.32 0 2 0 C2 2.97 2 5.94 2 9 C1.34 9 0.68 9 0 9 C0 8.01 0 7.02 0 6 C-0.99 6 -1.98 6 -3 6 C-3 6.99 -3 7.98 -3 9 C-3.66 9 -4.32 9 -5 9 C-5 6.36 -5 3.72 -5 1 C-4.67 1.99 -4.34 2.98 -4 4 C-2.68 4 -1.36 4 0 4 C0 2.68 0 1.36 0 0 Z " fill="#DAE4F3" transform="translate(133,27)"/>
<path d="M0 0 C2.625 0.375 2.625 0.375 5 1 C5 1.66 5 2.32 5 3 C3.68 3 2.36 3 1 3 C0.67 4.32 0.34 5.64 0 7 C0.66 6.34 1.32 5.68 2 5 C2.99 5 3.98 5 5 5 C4.67 6.32 4.34 7.64 4 9 C-0.875 8.125 -0.875 8.125 -2 7 C-2.1875 4.5625 -2.1875 4.5625 -2 2 C-1.34 1.34 -0.68 0.68 0 0 Z " fill="#D4E2F2" transform="translate(70,16)"/>
<path d="M0 0 C0 0.99 0 1.98 0 3 C-5.03511899 4.0070238 -8.23947038 3.97387813 -13 2 C-12.67 1.34 -12.34 0.68 -12 0 C-7.70057734 -0.90949326 -4.25063401 -1.15926382 0 0 Z " fill="#5183C6" transform="translate(33,39)"/>
<path d="M0 0 C0.99 0.33 1.98 0.66 3 1 C3.33 2.65 3.66 4.3 4 6 C3.01 6.495 3.01 6.495 2 7 C3.32 7.33 4.64 7.66 6 8 C5.01 8 4.02 8 3 8 C2.67 8.66 2.34 9.32 2 10 C0.68 9.34 -0.64 8.68 -2 8 C-1.34 5.36 -0.68 2.72 0 0 Z " fill="#BAADBF" transform="translate(169,26)"/>
<path d="M0 0 C0.99 0 1.98 0 3 0 C6 5.75 6 5.75 6 8 C5.34 8 4.68 8 4 8 C4 7.34 4 6.68 4 6 C2.68 6 1.36 6 0 6 C0 6.66 0 7.32 0 8 C-0.66 8 -1.32 8 -2 8 C-1.34 5.36 -0.68 2.72 0 0 Z " fill="#D4E2F2" transform="translate(46,17)"/>
<path d="M0 0 C1.32 0.33 2.64 0.66 4 1 C4 1.66 4 2.32 4 3 C2.68 2.67 1.36 2.34 0 2 C0 2.66 0 3.32 0 4 C1.32 4.33 2.64 4.66 4 5 C4 6.32 4 7.64 4 9 C2.35 9 0.7 9 -1 9 C-1.33 8.01 -1.66 7.02 -2 6 C-1.01 6 -0.02 6 1 6 C0.01 5.34 -0.98 4.68 -2 4 C-1.34 2.68 -0.68 1.36 0 0 Z " fill="#D3E0F1" transform="translate(66,27)"/>
<path d="M0 0 C0.495 0.165 0.99 0.33 1.5 0.5 C5.03444089 1.20688818 8.39690701 1.06005155 12 1 C12 1.99 12 2.98 12 4 C8.04 4 4.08 4 0 4 C0 2.68 0 1.36 0 0 Z " fill="#427AC2" transform="translate(43,38)"/>
<path d="M0 0 C0.33 1.65 0.66 3.3 1 5 C-2.96 5 -6.92 5 -11 5 C-7.72224847 1.72224847 -4.73330318 0 0 0 Z " fill="#0E5FB8" transform="translate(272,35)"/>
<path d="M0 0 C1.98 0 3.96 0 6 0 C6 0.66 6 1.32 6 2 C4.68 2 3.36 2 2 2 C2 2.66 2 3.32 2 4 C2.99 4.33 3.98 4.66 5 5 C4.01 5 3.02 5 2 5 C2 5.99 2 6.98 2 8 C3.32 8.33 4.64 8.66 6 9 C4.02 9 2.04 9 0 9 C0 6.03 0 3.06 0 0 Z " fill="#DCE7F4" transform="translate(80,16)"/>
<path d="M0 0 C0.66 0 1.32 0 2 0 C2 1.32 2 2.64 2 4 C3.65 3.67 5.3 3.34 7 3 C7.33 3.66 7.66 4.32 8 5 C4.7 5.33 1.4 5.66 -2 6 C-2 2 -2 2 0 0 Z " fill="#383F4D" transform="translate(159,36)"/>
<path d="M0 0 C1.32 0.33 2.64 0.66 4 1 C4 1.66 4 2.32 4 3 C2.68 2.67 1.36 2.34 0 2 C0 2.66 0 3.32 0 4 C1.32 4.33 2.64 4.66 4 5 C4 6.32 4 7.64 4 9 C2.35 9 0.7 9 -1 9 C-1.33 8.01 -1.66 7.02 -2 6 C-1.34 6 -0.68 6 0 6 C0 6.66 0 7.32 0 8 C0.66 7.34 1.32 6.68 2 6 C0.68 5.34 -0.64 4.68 -2 4 C-1.34 2.68 -0.68 1.36 0 0 Z " fill="#DAE4F3" transform="translate(23,16)"/>
<path d="M0 0 C3.63 0.33 7.26 0.66 11 1 C11 1.99 11 2.98 11 4 C7.37 4 3.74 4 0 4 C0 2.68 0 1.36 0 0 Z " fill="#4C80C5" transform="translate(86,38)"/>
<path d="M0 0 C1.76462683 3.08809695 2 4.23312136 2 8 C-0.31 8 -2.62 8 -5 8 C-4.67 7.38125 -4.34 6.7625 -4 6.125 C-2.85806765 4.08981656 -2.85806765 4.08981656 -3 2 C-2.01 2 -1.02 2 0 2 C0 1.34 0 0.68 0 0 Z " fill="#635F61" transform="translate(160,42)"/>
<path d="M0 0 C0.66 0.33 1.32 0.66 2 1 C1.67 1.99 1.34 2.98 1 4 C1.66 4.66 2.32 5.32 3 6 C1.35 6.66 -0.3 7.32 -2 8 C-2.33 7.01 -2.66 6.02 -3 5 C-3.66 5 -4.32 5 -5 5 C-5 4.34 -5 3.68 -5 3 C-4.360625 2.87625 -3.72125 2.7525 -3.0625 2.625 C-2.0415625 2.315625 -2.0415625 2.315625 -1 2 C-0.67 1.34 -0.34 0.68 0 0 Z " fill="#240714" transform="translate(205,33)"/>
<path d="M0 0 C2 1 2 1 2.75 2.875 C3 5 3 5 1 8 C1.66 8 2.32 8 3 8 C3 8.66 3 9.32 3 10 C1.68 9.67 0.36 9.34 -1 9 C-1 6 -1 6 0 5 C-0.99 4.67 -1.98 4.34 -3 4 C-2.34 4 -1.68 4 -1 4 C-0.67 2.68 -0.34 1.36 0 0 Z " fill="#645A5A" transform="translate(185,31)"/>
<path d="M0 0 C0.33 0.99 0.66 1.98 1 3 C-0.75 5.6875 -0.75 5.6875 -3 8 C-3.99 8 -4.98 8 -6 8 C-6 6.35 -6 4.7 -6 3 C-4.02 2.01 -2.04 1.02 0 0 Z " fill="#C2CEE8" transform="translate(170,20)"/>
<path d="M0 0 C0.66 0.33 1.32 0.66 2 1 C1.67 1.99 1.34 2.98 1 4 C-1.0625 4.6875 -1.0625 4.6875 -3 5 C-3.33 6.65 -3.66 8.3 -4 10 C-3.34 10 -2.68 10 -2 10 C-2.33 11.32 -2.66 12.64 -3 14 C-3.66 14 -4.32 14 -5 14 C-5 10.37 -5 6.74 -5 3 C-3.68 3 -2.36 3 -1 3 C-0.67 2.01 -0.34 1.02 0 0 Z " fill="#A0ACCD" transform="translate(168,18)"/>
<path d="M0 0 C2.875 0.3125 2.875 0.3125 6 1 C6.66 1.99 7.32 2.98 8 4 C7.67 4.66 7.34 5.32 7 6 C6.4225 5.690625 5.845 5.38125 5.25 5.0625 C3.15705816 4.07416636 1.25464725 3.4831387 -1 3 C-0.67 2.01 -0.34 1.02 0 0 Z " fill="#963A76" transform="translate(202,20)"/>
<path d="M0 0 C3.3 0 6.6 0 10 0 C9.67 0.99 9.34 1.98 9 3 C4.545 3.495 4.545 3.495 0 4 C0 2.68 0 1.36 0 0 Z " fill="#8DAEDA" transform="translate(244,13)"/>
<path d="M0 0 C0.33 0 0.66 0 1 0 C1.33 2.97 1.66 5.94 2 9 C0.68 9.33 -0.64 9.66 -2 10 C-2.66 8.02 -3.32 6.04 -4 4 C-3.01 3.34 -2.02 2.68 -1 2 C-0.67 1.34 -0.34 0.68 0 0 Z " fill="#38121F" transform="translate(201,27)"/>
<path d="M0 0 C2.31 0 4.62 0 7 0 C7 0.66 7 1.32 7 2 C6.34 2 5.68 2 5 2 C5 4.31 5 6.62 5 9 C4.34 9 3.68 9 3 9 C3 6.69 3 4.38 3 2 C2.01 2 1.02 2 0 2 C0 1.34 0 0.68 0 0 Z " fill="#CEDBEE" transform="translate(28,16)"/>
<path d="M0 0 C1.32 0 2.64 0 4 0 C4 1.32 4 2.64 4 4 C4.99 4 5.98 4 7 4 C7 4.66 7 5.32 7 6 C5.02 6.33 3.04 6.66 1 7 C1.33 5.68 1.66 4.36 2 3 C1.34 2.67 0.68 2.34 0 2 C0 1.34 0 0.68 0 0 Z " fill="#959397" transform="translate(150,43)"/>
<path d="M0 0 C0.99 0 1.98 0 3 0 C3 0.66 3 1.32 3 2 C3.66 2 4.32 2 5 2 C4.67 3.65 4.34 5.3 4 7 C2.68 6.67 1.36 6.34 0 6 C0 4.02 0 2.04 0 0 Z " fill="#7EA0D4" transform="translate(23,29)"/>
<path d="M0 0 C1.485 0.99 1.485 0.99 3 2 C4.65549531 2.38499891 6.3222433 2.72793135 8 3 C8 3.99 8 4.98 8 6 C7.01 6 6.02 6 5 6 C4.67 6.99 4.34 7.98 4 9 C3.731875 8.38125 3.46375 7.7625 3.1875 7.125 C2.04443152 4.7004767 2.04443152 4.7004767 -1 3 C-0.67 2.01 -0.34 1.02 0 0 Z " fill="#523C34" transform="translate(174,20)"/>
<path d="M0 0 C1.32 0.33 2.64 0.66 4 1 C6.21538462 7.4 6.21538462 7.4 5.125 10.4375 C4.75375 10.953125 4.3825 11.46875 4 12 C3.67 9.36 3.34 6.72 3 4 C1.35 4 -0.3 4 -2 4 C-1.34 2.68 -0.68 1.36 0 0 Z " fill="#393133" transform="translate(186,14)"/>
<path d="M0 0 C0.66 0.33 1.32 0.66 2 1 C2 3.64 2 6.28 2 9 C0.68 9.33 -0.64 9.66 -2 10 C-2.66 9.01 -3.32 8.02 -4 7 C-2.68 6.67 -1.36 6.34 0 6 C-0.66 5.34 -1.32 4.68 -2 4 C-1.01 4 -0.02 4 1 4 C1 3.34 1 2.68 1 2 C0.34 1.67 -0.32 1.34 -1 1 C-0.67 0.67 -0.34 0.34 0 0 Z " fill="#936E61" transform="translate(179,13)"/>
<path d="M0 0 C2.97 0 5.94 0 9 0 C8.67 1.32 8.34 2.64 8 4 C6.02 4 4.04 4 2 4 C2 3.34 2 2.68 2 2 C1.34 2 0.68 2 0 2 C0 1.34 0 0.68 0 0 Z " fill="#C9D4EB" transform="translate(153,16)"/>
<path d="M0 0 C2.97 0.33 5.94 0.66 9 1 C9 1.99 9 2.98 9 4 C2.25 4.125 2.25 4.125 0 3 C0 2.01 0 1.02 0 0 Z " fill="#4A7EC4" transform="translate(109,38)"/>
<path d="M0 0 C0 0.99 0 1.98 0 3 C-3.63 3 -7.26 3 -11 3 C-11 2.34 -11 1.68 -11 1 C-7.32589215 -0.17571451 -3.83070817 -0.07366746 0 0 Z " fill="#161720" transform="translate(172,37)"/>
<path d="M0 0 C2 4 2 4 2 8 C0.02 8 -1.96 8 -4 8 C-2.68 5.36 -1.36 2.72 0 0 Z " fill="#29242A" transform="translate(220,42)"/>
<path d="M0 0 C1.65 0 3.3 0 5 0 C4.01 0.33 3.02 0.66 2 1 C2 1.66 2 2.32 2 3 C2.99 3.33 3.98 3.66 5 4 C4.01 4 3.02 4 2 4 C2 4.99 2 5.98 2 7 C2.99 7.33 3.98 7.66 5 8 C3.35 8 1.7 8 0 8 C0 5.36 0 2.72 0 0 Z " fill="#F1F5FA" transform="translate(57,28)"/>
<path d="M0 0 C1.65 0 3.3 0 5 0 C4.01 0.33 3.02 0.66 2 1 C2 1.66 2 2.32 2 3 C2.99 3 3.98 3 5 3 C5 3.66 5 4.32 5 5 C4.01 5 3.02 5 2 5 C2 5.99 2 6.98 2 8 C1.34 8 0.68 8 0 8 C0 5.36 0 2.72 0 0 Z " fill="#D5E1F1" transform="translate(98,17)"/>
<path d="M0 0 C1.65 0 3.3 0 5 0 C4.01 0.33 3.02 0.66 2 1 C2 1.66 2 2.32 2 3 C2.99 3.33 3.98 3.66 5 4 C4.01 4 3.02 4 2 4 C2 4.99 2 5.98 2 7 C2.99 7.33 3.98 7.66 5 8 C3.35 8 1.7 8 0 8 C0 5.36 0 2.72 0 0 Z " fill="#F1F6FB" transform="translate(61,17)"/>
<path d="M0 0 C1.67542976 0.28604898 3.34385343 0.61781233 5 1 C5 1.99 5 2.98 5 4 C4.34 4 3.68 4 3 4 C3.33 4.99 3.66 5.98 4 7 C3.01 7.495 3.01 7.495 2 8 C2 7.01 2 6.02 2 5 C1.34 4.67 0.68 4.34 0 4 C0.33 3.34 0.66 2.68 1 2 C0.34 1.67 -0.32 1.34 -1 1 C-0.67 0.67 -0.34 0.34 0 0 Z " fill="#B98E7B" transform="translate(185,17)"/>
<path d="M0 0 C-0.33 0.99 -0.66 1.98 -1 3 C-3.31 3.33 -5.62 3.66 -8 4 C-8 3.01 -8 2.02 -8 1 C-5.07175348 0.02391783 -3.04386724 -0.08226668 0 0 Z " fill="#A0BBE0" transform="translate(263,13)"/>
<path d="M0 0 C1.32 0 2.64 0 4 0 C4 0.66 4 1.32 4 2 C4.66 2 5.32 2 6 2 C6 2.99 6 3.98 6 5 C4.68 5.33 3.36 5.66 2 6 C0.99983813 3.99967627 0.50603992 2.16874252 0 0 Z " fill="#B0B7CC" transform="translate(145,37)"/>
<path d="M0 0 C0.66 0.66 1.32 1.32 2 2 C1.21625 1.95875 0.4325 1.9175 -0.375 1.875 C-3.16116119 1.71271266 -3.16116119 1.71271266 -5 4 C-5.99 3.67 -6.98 3.34 -8 3 C-8 2.01 -8 1.02 -8 0 C-4.67679974 -1.10773342 -3.30835256 -0.93312508 0 0 Z " fill="#3973BF" transform="translate(67,32)"/>
<path d="M0 0 C1.98 0.495 1.98 0.495 4 1 C3.67 2.32 3.34 3.64 3 5 C1.68 5 0.36 5 -1 5 C-0.67 3.35 -0.34 1.7 0 0 Z " fill="#9FB9E0" transform="translate(241,31)"/>
<path d="M0 0 C-0.99 0.33 -1.98 0.66 -3 1 C-3.66 0.67 -4.32 0.34 -5 0 C-5 0.66 -5 1.32 -5 2 C-6.65 2 -8.3 2 -10 2 C-10 1.01 -10 0.02 -10 -1 C-6.06329512 -2.31223496 -3.87511856 -1.24296256 0 0 Z " fill="#346FBD" transform="translate(92,22)"/>
<path d="M0 0 C3.96 0 7.92 0 12 0 C12 0.66 12 1.32 12 2 C6.06 2.495 6.06 2.495 0 3 C0 2.01 0 1.02 0 0 Z " fill="#759DD4" transform="translate(21,7)"/>
<path d="M0 0 C1.64350079 3.28700157 2.41321669 5.47930015 3 9 C1.35 9 -0.3 9 -2 9 C-1.34 6.03 -0.68 3.06 0 0 Z " fill="#646162" transform="translate(197,41)"/>
<path d="M0 0 C0.66 0 1.32 0 2 0 C2 0.66 2 1.32 2 2 C2.99 2.33 3.98 2.66 5 3 C4.34 3 3.68 3 3 3 C3 4.32 3 5.64 3 7 C1.68 6.67 0.36 6.34 -1 6 C-0.34 6 0.32 6 1 6 C1 5.34 1 4.68 1 4 C0.34 3.67 -0.32 3.34 -1 3 C-0.67 2.01 -0.34 1.02 0 0 Z " fill="#5B1B3E" transform="translate(210,32)"/>
<path d="M0 0 C0.33 0 0.66 0 1 0 C1 2.31 1 4.62 1 7 C-1.97 6.505 -1.97 6.505 -5 6 C-4.34 4.68 -3.68 3.36 -3 2 C-3 2.66 -3 3.32 -3 4 C-2.34 4 -1.68 4 -1 4 C-0.67 2.68 -0.34 1.36 0 0 Z " fill="#281513" transform="translate(200,24)"/>
<path d="M0 0 C1.98 0.495 1.98 0.495 4 1 C3.67 2.32 3.34 3.64 3 5 C1.68 4.67 0.36 4.34 -1 4 C-0.67 2.68 -0.34 1.36 0 0 Z " fill="#B0C5E5" transform="translate(241,25)"/>
<path d="M0 0 C0.66 0 1.32 0 2 0 C2.33 1.65 2.66 3.3 3 5 C1.35 5.66 -0.3 6.32 -2 7 C-2 6.01 -2 5.02 -2 4 C-2.66 3.67 -3.32 3.34 -4 3 C-2.68 3 -1.36 3 0 3 C0 2.01 0 1.02 0 0 Z " fill="#5E5053" transform="translate(184,19)"/>
<path d="M0 0 C0.66 0.33 1.32 0.66 2 1 C1.34 3.31 0.68 5.62 0 8 C-0.99 8 -1.98 8 -3 8 C-1.125 1.125 -1.125 1.125 0 0 Z " fill="#C8D8ED" transform="translate(117,28)"/>
<path d="M0 0 C0.66 0 1.32 0 2 0 C1.67 2.31 1.34 4.62 1 7 C0.67 6.01 0.34 5.02 0 4 C-1.32 4.33 -2.64 4.66 -4 5 C-3.67 3.68 -3.34 2.36 -3 1 C-3 1.66 -3 2.32 -3 3 C-2.34 3 -1.68 3 -1 3 C-0.67 2.01 -0.34 1.02 0 0 Z " fill="#7886AF" transform="translate(166,29)"/>
<path d="M0 0 C1.32 0 2.64 0 4 0 C4 0.66 4 1.32 4 2 C3.34 2 2.68 2 2 2 C2 4.64 2 7.28 2 10 C1.67 10 1.34 10 1 10 C0.67 6.7 0.34 3.4 0 0 Z " fill="#B77E6B" transform="translate(209,39)"/>
<path d="M0 0 C2 2 2 2 2 6 C0.02 6.33 -1.96 6.66 -4 7 C-4 6.34 -4 5.68 -4 5 C-3.01 5 -2.02 5 -1 5 C-0.67 3.35 -0.34 1.7 0 0 Z " fill="#201D20" transform="translate(177,29)"/>
<path d="M0 0 C2.9375 0.8125 2.9375 0.8125 6 2 C6.33 2.99 6.66 3.98 7 5 C6.01 5.66 5.02 6.32 4 7 C2.02 3.535 2.02 3.535 0 0 Z " fill="#7D2457" transform="translate(203,23)"/>
<path d="M0 0 C0.99 0.33 1.98 0.66 3 1 C3 2.98 3 4.96 3 7 C2.01 7 1.02 7 0 7 C0 4.69 0 2.38 0 0 Z " fill="#0D499A" transform="translate(181,15)"/>
<path d="M0 0 C1.32 0.33 2.64 0.66 4 1 C4.33 2.32 4.66 3.64 5 5 C3.68 5 2.36 5 1 5 C0.67 3.35 0.34 1.7 0 0 Z " fill="#D4CFCA" transform="translate(198,43)"/>
<path d="M0 0 C1.98 0 3.96 0 6 0 C6 0.99 6 1.98 6 3 C4.02 3 2.04 3 0 3 C0 2.01 0 1.02 0 0 Z " fill="#4A82C7" transform="translate(35,39)"/>
<path d="M0 0 C2.64 0 5.28 0 8 0 C7.67 0.99 7.34 1.98 7 3 C2.25 3.125 2.25 3.125 0 2 C0 1.34 0 0.68 0 0 Z " fill="#457BC3" transform="translate(77,39)"/>
<path d="M0 0 C2.475 0.99 2.475 0.99 5 2 C4.01 2.33 3.02 2.66 2 3 C2 4.65 2 6.3 2 8 C1.34 7.67 0.68 7.34 0 7 C0 4.69 0 2.38 0 0 Z " fill="#514137" transform="translate(192,28)"/>
<path d="M0 0 C1.32 0.33 2.64 0.66 4 1 C3.67 2.32 3.34 3.64 3 5 C2.01 5 1.02 5 0 5 C0 3.35 0 1.7 0 0 Z " fill="#185BB4" transform="translate(101,29)"/>
<path d="M0 0 C1.65 0 3.3 0 5 0 C4.67 0.99 4.34 1.98 4 3 C3.01 2.67 2.02 2.34 1 2 C1 2.66 1 3.32 1 4 C1.66 4.33 2.32 4.66 3 5 C1.68 5 0.36 5 -1 5 C-0.67 3.35 -0.34 1.7 0 0 Z " fill="#1C5EB6" transform="translate(85,29)"/>
<path d="M0 0 C1.65 0.33 3.3 0.66 5 1 C5 1.66 5 2.32 5 3 C3.68 2.67 2.36 2.34 1 2 C1 2.99 1 3.98 1 5 C0.34 5 -0.32 5 -1 5 C-0.67 3.35 -0.34 1.7 0 0 Z " fill="#C6D6EC" transform="translate(73,27)"/>
<path d="M0 0 C0.99 0 1.98 0 3 0 C3 1.66666667 3 3.33333333 3 5 C1.35 5 -0.3 5 -2 5 C-1.125 1.125 -1.125 1.125 0 0 Z " fill="#D29F8A" transform="translate(177,15)"/>
<path d="M0 0 C0.99 0 1.98 0 3 0 C3 1.65 3 3.3 3 5 C1.68 4.67 0.36 4.34 -1 4 C-0.67 2.68 -0.34 1.36 0 0 Z " fill="#195BB5" transform="translate(107,18)"/>
<path d="M0 0 C0 0.99 0 1.98 0 3 C-4.455 2.01 -4.455 2.01 -9 1 C-4.82091936 -1.08954032 -4.19589427 -1.16552619 0 0 Z " fill="#4178C1" transform="translate(33,39)"/>
<path d="M0 0 C0.33 1.32 0.66 2.64 1 4 C-0.65 4.66 -2.3 5.32 -4 6 C-4 5.01 -4 4.02 -4 3 C-3.34 3 -2.68 3 -2 3 C-2 2.34 -2 1.68 -2 1 C-1.34 0.67 -0.68 0.34 0 0 Z " fill="#233957" transform="translate(161,29)"/>
<path d="M0 0 C0.99 0.33 1.98 0.66 3 1 C3 2.65 3 4.3 3 6 C1.68 5.34 0.36 4.68 -1 4 C-0.67 2.68 -0.34 1.36 0 0 Z " fill="#CC967F" transform="translate(195,19)"/>
</svg>
